<?xml version="1.0" encoding="utf-8"?>
<!-- Generator: Adobe Illustrator 16.0.0, SVG Export Plug-In . SVG Version: 6.00 Build 0)  -->
<!DOCTYPE svg PUBLIC "-//W3C//DTD SVG 1.1//EN" "http://www.w3.org/Graphics/SVG/1.1/DTD/svg11.dtd">
<svg version="1.1" id="Layer_1" xmlns:serif="http://www.serif.com/"
	 xmlns="http://www.w3.org/2000/svg" xmlns:xlink="http://www.w3.org/1999/xlink" x="0px" y="0px" width="400px" height="400px"
	 viewBox="0 0 400 400" enable-background="new 0 0 400 400" xml:space="preserve">
<path fill="#EBE9E1" d="M200,0c110.383,0,200,89.617,200,200s-89.617,200-200,200S0,310.383,0,200S89.617,0,200,0z M200,75
	c-33.948,0-38.205,0.144-51.538,0.752c-13.305,0.607-22.391,2.72-30.343,5.81c-8.22,3.194-15.191,7.469-22.14,14.418
	s-11.223,13.92-14.418,22.14c-3.09,7.951-5.202,17.038-5.81,30.342C75.144,161.795,75,166.052,75,200
	c0,33.947,0.144,38.205,0.751,51.537c0.608,13.305,2.72,22.392,5.81,30.343c3.195,8.22,7.469,15.19,14.418,22.141
	c6.949,6.949,13.92,11.224,22.14,14.418c7.952,3.089,17.038,5.202,30.343,5.81C161.795,324.856,166.052,325,200,325
	c33.947,0,38.205-0.144,51.537-0.752c13.305-0.607,22.392-2.721,30.343-5.81c8.22-3.194,15.19-7.469,22.141-14.418
	c6.949-6.95,11.224-13.921,14.418-22.141c3.089-7.951,5.202-17.038,5.81-30.343C324.856,238.205,325,233.947,325,200
	c0-33.948-0.144-38.205-0.752-51.538c-0.607-13.305-2.721-22.391-5.81-30.342c-3.194-8.219-7.469-15.19-14.418-22.14
	c-6.95-6.949-13.921-11.224-22.141-14.418c-7.951-3.09-17.038-5.203-30.343-5.81C238.205,75.144,233.947,75,200,75z M200,97.522
	c33.377,0,37.33,0.127,50.511,0.729c12.188,0.556,18.806,2.592,23.21,4.304c5.836,2.267,10,4.977,14.373,9.351
	c4.375,4.374,7.084,8.538,9.351,14.373c1.712,4.405,3.749,11.023,4.304,23.21c0.602,13.181,0.729,17.134,0.729,50.511
	c0,33.377-0.128,37.33-0.729,50.511c-0.555,12.188-2.592,18.806-4.304,23.21c-2.267,5.836-4.976,10-9.351,14.373
	c-4.373,4.375-8.537,7.084-14.373,9.351c-4.404,1.712-11.022,3.749-23.21,4.304c-13.179,0.602-17.132,0.729-50.511,0.729
	s-37.331-0.128-50.511-0.729c-12.188-0.555-18.806-2.592-23.21-4.304c-5.835-2.267-9.999-4.976-14.374-9.351
	c-4.374-4.373-7.083-8.537-9.35-14.373c-1.712-4.404-3.749-11.022-4.305-23.21c-0.602-13.181-0.729-17.134-0.729-50.511
	c0-33.376,0.127-37.33,0.729-50.511c0.556-12.188,2.593-18.806,4.305-23.21c2.267-5.834,4.976-9.999,9.35-14.373
	c4.375-4.374,8.539-7.083,14.374-9.351c4.405-1.712,11.023-3.748,23.21-4.304C162.67,97.65,166.624,97.522,200,97.522z M200,135.811
	c-35.451,0-64.189,28.738-64.189,64.189c0,35.451,28.738,64.189,64.189,64.189c35.451,0,64.189-28.738,64.189-64.189
	C264.189,164.549,235.451,135.811,200,135.811L200,135.811z M200,241.666c-23.012,0-41.667-18.654-41.667-41.666
	s18.655-41.667,41.667-41.667s41.666,18.655,41.666,41.667S223.012,241.666,200,241.666z M281.726,133.275
	c0,8.285-6.716,15-15.001,15c-8.283,0-14.999-6.715-14.999-15c0-8.284,6.716-15,14.999-15
	C275.01,118.275,281.726,124.991,281.726,133.275z"/>
</svg>
