<?xml version="1.0" encoding="utf-8"?>
<!-- Generator: Adobe Illustrator 16.0.0, SVG Export Plug-In . SVG Version: 6.00 Build 0)  -->
<!DOCTYPE svg PUBLIC "-//W3C//DTD SVG 1.1//EN" "http://www.w3.org/Graphics/SVG/1.1/DTD/svg11.dtd">
<svg version="1.1" id="Layer_1" xmlns:serif="http://www.serif.com/"
	 xmlns="http://www.w3.org/2000/svg" xmlns:xlink="http://www.w3.org/1999/xlink" x="0px" y="0px" width="400px" height="400px"
	 viewBox="0 0 400 400" enable-background="new 0 0 400 400" xml:space="preserve">
<path fill="#EBE9E1" d="M200,0c110.383,0,200,89.617,200,200s-89.617,200-200,200S0,310.383,0,200S89.617,0,200,0z M137.471,312.399
	V156.211H85.546v156.188H137.471z M324.674,312.399v-89.567c0-47.976-25.614-70.294-59.772-70.294
	c-27.543,0-39.88,15.148-46.788,25.787v-22.114h-51.912c0.688,14.654,0,156.188,0,156.188h51.911v-87.227
	c0-4.669,0.336-9.336,1.712-12.673c3.746-9.324,12.295-18.983,26.637-18.983c18.776,0,26.299,14.328,26.299,35.315v83.567H324.674z
	 M111.859,80.898c-17.766,0-29.373,11.68-29.373,26.988c0,14.986,11.254,26.987,28.685,26.987h0.335
	c18.105,0,29.375-12.001,29.375-26.987C140.546,92.578,129.613,80.898,111.859,80.898z"/>
</svg>
