<?xml version="1.0" encoding="utf-8"?>
<!-- Generator: Adobe Illustrator 16.0.0, SVG Export Plug-In . SVG Version: 6.00 Build 0)  -->
<!DOCTYPE svg PUBLIC "-//W3C//DTD SVG 1.1//EN" "http://www.w3.org/Graphics/SVG/1.1/DTD/svg11.dtd">
<svg version="1.1" id="Layer_1" xmlns:serif="http://www.serif.com/"
	 xmlns="http://www.w3.org/2000/svg" xmlns:xlink="http://www.w3.org/1999/xlink" x="0px" y="0px" width="400px" height="400px"
	 viewBox="0 0 400 400" enable-background="new 0 0 400 400" xml:space="preserve">
<path fill="#EBE9E1" d="M199.999,0.001C89.542,0.001,0,89.545,0,199.999c0,84.731,52.715,157.165,127.115,186.306
	c-1.75-15.824-3.329-40.16,0.695-57.436c3.633-15.608,23.451-99.413,23.451-99.413s-5.983-11.979-5.983-29.693
	c0-27.81,16.119-48.571,36.19-48.571c17.062,0,25.305,12.812,25.305,28.173c0,17.161-10.925,42.814-16.564,66.59
	c-4.711,19.907,9.983,36.142,29.616,36.142c35.549,0,62.873-37.481,62.873-91.585c0-47.885-34.41-81.367-83.541-81.367
	c-56.907,0-90.31,42.683-90.31,86.793c0,17.19,6.621,35.622,14.884,45.642c1.633,1.98,1.874,3.717,1.388,5.736
	c-1.52,6.318-4.893,19.902-5.556,22.682c-0.873,3.661-2.899,4.438-6.688,2.675c-24.979-11.628-40.596-48.146-40.596-77.479
	c0-63.09,45.837-121.027,132.146-121.027c69.38,0,123.298,49.437,123.298,115.508c0,68.929-43.46,124.4-103.783,124.4
	c-20.266,0-39.318-10.528-45.839-22.965c0,0-10.029,38.187-12.461,47.544c-4.517,17.373-16.705,39.147-24.857,52.43
	c18.715,5.794,38.601,8.919,59.216,8.919c110.46,0,200.002-89.541,200.002-200.001C400.001,89.545,310.459,0.001,199.999,0.001
	L199.999,0.001z"/>
</svg>
