<?xml version="1.0" encoding="utf-8"?>
<!-- Generator: Adobe Illustrator 16.0.0, SVG Export Plug-In . SVG Version: 6.00 Build 0)  -->
<!DOCTYPE svg PUBLIC "-//W3C//DTD SVG 1.1//EN" "http://www.w3.org/Graphics/SVG/1.1/DTD/svg11.dtd">
<svg version="1.1" id="Layer_1" xmlns:serif="http://www.serif.com/"
	 xmlns="http://www.w3.org/2000/svg" xmlns:xlink="http://www.w3.org/1999/xlink" x="0px" y="0px" width="400px" height="400px"
	 viewBox="0 0 400 400" enable-background="new 0 0 400 400" xml:space="preserve">
<path fill="#EBE9E1" d="M199.236,399.998l0.179,0.001h-0.062L199.236,399.998z M200.646,399.999h-0.062l0.179-0.001L200.646,399.999
	z M198.625,399.995l0.193,0.001h-0.111L198.625,399.995z M201.293,399.996h-0.111l0.193-0.001L201.293,399.996z M198.036,399.99
	l0.129,0.001l-0.104-0.001H198.036L198.036,399.99z M201.938,399.99l-0.104,0.001l0.129-0.001H201.938L201.938,399.99z
	 M202.584,399.983l-0.046,0.001l0.175-0.002L202.584,399.983L202.584,399.983z M197.288,399.982l0.174,0.002l-0.045-0.001
	L197.288,399.982L197.288,399.982z M203.229,399.975l-0.105,0.001l0.215-0.003L203.229,399.975L203.229,399.975z M196.663,399.973
	l0.215,0.003l-0.105-0.001L196.663,399.973L196.663,399.973z M203.872,399.963l-0.143,0.003l0.198-0.004L203.872,399.963z
	 M196.072,399.962l0.199,0.004l-0.143-0.003L196.072,399.962L196.072,399.962z M195.34,399.947l0.176,0.004l-0.031-0.001
	L195.34,399.947z M204.516,399.95l-0.031,0.001l0.176-0.004L204.516,399.95z M194.698,399.931l0.241,0.006l-0.098-0.002
	L194.698,399.931z M205.158,399.935l-0.098,0.002l0.242-0.006L205.158,399.935z M205.802,399.917l-0.157,0.005l0.247-0.007
	L205.802,399.917L205.802,399.917z M194.108,399.915l0.247,0.007l-0.157-0.005L194.108,399.915L194.108,399.915z M193.546,399.897
	l0.176,0.006l-0.166-0.006l-0.151-0.005L193.546,399.897z M206.443,399.897l-0.165,0.006l0.176-0.006l0.142-0.005L206.443,399.897z
	 M207.085,399.877l-0.087,0.003l0.27-0.01L207.085,399.877z M192.733,399.87l0.27,0.01l-0.087-0.003L192.733,399.87z
	 M192.147,399.849l0.283,0.01l-0.157-0.005L192.147,399.849z M207.727,399.854l-0.157,0.005l0.283-0.01L207.727,399.854z
	 M191.573,399.825l0.277,0.012l-0.216-0.009L191.573,399.825L191.573,399.825z M208.366,399.828l-0.216,0.009l0.276-0.013
	L208.366,399.828z M190.769,399.79l0.297,0.013l-0.072-0.002L190.769,399.79z M209.007,399.801l-0.072,0.002l0.297-0.013
	L209.007,399.801L209.007,399.801z M190.191,399.764l0.308,0.014l-0.145-0.006L190.191,399.764z M209.646,399.771l-0.146,0.006
	l0.308-0.014L209.646,399.771z M189.623,399.734l0.31,0.016l-0.218-0.01L189.623,399.734z M210.285,399.74l-0.218,0.01l0.31-0.016
	L210.285,399.74z M210.924,399.706l-0.282,0.015l0.251-0.013l0.295-0.017L210.924,399.706z M189.108,399.708l0.25,0.013
	l-0.283-0.015l-0.263-0.015L189.108,399.708L189.108,399.708z M211.562,399.67l-0.125,0.008l0.317-0.019L211.562,399.67z
	 M188.246,399.659l0.317,0.019l-0.125-0.008L188.246,399.659z M187.682,399.626l0.316,0.019l-0.198-0.012L187.682,399.626
	L187.682,399.626z M212.199,399.634l-0.197,0.011l0.316-0.019L212.199,399.634L212.199,399.634z M187.144,399.592l0.285,0.019
	l-0.266-0.017l-0.267-0.018L187.144,399.592L187.144,399.592z M212.837,399.594l-0.266,0.017l0.285-0.019l0.247-0.016
	L212.837,399.594L212.837,399.594z M213.473,399.553l-0.096,0.006l0.303-0.021L213.473,399.553L213.473,399.553z M186.32,399.538
	l0.302,0.021l-0.095-0.006L186.32,399.538z M185.757,399.499l0.297,0.021l-0.162-0.011L185.757,399.499z M214.108,399.51
	l-0.162,0.011l0.297-0.021L214.108,399.51z M185.195,399.459l0.272,0.02l-0.211-0.015L185.195,399.459L185.195,399.459z
	 M214.744,399.464l-0.212,0.015l0.272-0.02L214.744,399.464z M184.44,399.402l0.239,0.018l-0.058-0.004L184.44,399.402z
	 M215.379,399.416l-0.058,0.004l0.239-0.018L215.379,399.416z M216.013,399.367l-0.114,0.009l0.243-0.02L216.013,399.367z
	 M183.858,399.356l0.243,0.02l-0.114-0.009L183.858,399.356L183.858,399.356z M183.292,399.311l0.207,0.017l-0.146-0.012
	L183.292,399.311z M216.646,399.315l-0.145,0.012l0.206-0.017L216.646,399.315z M182.669,399.258l0.062,0.006l-0.01-0.001
	L182.669,399.258L182.669,399.258z M217.279,399.263l-0.01,0.001l0.062-0.006L217.279,399.263L217.279,399.263z M217.912,399.207
	l-0.056,0.005l0.142-0.013L217.912,399.207L217.912,399.207z M182.002,399.199l0.141,0.013l-0.056-0.005L182.002,399.199
	L182.002,399.199z M181.417,399.146l0.105,0.01l-0.066-0.006L181.417,399.146z M218.544,399.15l-0.065,0.006l0.105-0.01
	L218.544,399.15z M168.75,397.568C73.188,382.548,0,299.753,0,200C0,89.617,89.617,0,200,0s200,89.617,200,200
	c0,99.753-73.188,182.548-168.75,197.568V257.813h46.602L286.719,200H231.25v-37.517c0-15.816,7.748-31.233,32.593-31.233h25.22
	V82.031c0,0-22.888-3.906-44.77-3.906c-45.685,0-75.543,27.688-75.543,77.813V200h-50.781v57.813h50.781V397.568z"/>
</svg>
